<svg width="32" height="32" viewBox="0 0 32 32" fill="none" xmlns="http://www.w3.org/2000/svg">
  <!-- Fondo circular místico -->
  <circle cx="16" cy="16" r="15" fill="url(#mysticalGradient)" stroke="#8B5CF6" stroke-width="2"/>
  
  <!-- Pentagrama -->
  <path d="M16 6 L18.5 12.5 L25 12.5 L20 17 L22.5 23.5 L16 19 L9.5 23.5 L12 17 L7 12.5 L13.5 12.5 Z" 
        fill="#FFD700" stroke="#FFA500" stroke-width="0.5" opacity="0.9"/>
  
  <!-- Luna creciente -->
  <path d="M8 10 C8 8, 10 6, 12 8 C10 10, 8 12, 8 10 Z" fill="#E5E7EB" opacity="0.8"/>
  
  <!-- Estrellas pequeñas -->
  <circle cx="24" cy="8" r="1" fill="#FFD700"/>
  <circle cx="26" cy="14" r="0.8" fill="#FFA500"/>
  <circle cx="6" cy="20" r="0.8" fill="#FFD700"/>
  <circle cx="4" cy="12" r="1" fill="#FFA500"/>
  
  <!-- Cristal místico en el centro -->
  <path d="M16 14 L18 16 L16 18 L14 16 Z" fill="url(#crystalGradient)" stroke="#8B5CF6" stroke-width="0.5"/>
  
  <!-- Gradientes -->
  <defs>
    <radialGradient id="mysticalGradient" cx="50%" cy="50%" r="50%">
      <stop offset="0%" style="stop-color:#1F1B2E;stop-opacity:1" />
      <stop offset="70%" style="stop-color:#2D1B69;stop-opacity:1" />
      <stop offset="100%" style="stop-color:#0F0A1A;stop-opacity:1" />
    </radialGradient>
    
    <linearGradient id="crystalGradient" x1="0%" y1="0%" x2="100%" y2="100%">
      <stop offset="0%" style="stop-color:#A855F7;stop-opacity:0.8" />
      <stop offset="50%" style="stop-color:#EC4899;stop-opacity:0.6" />
      <stop offset="100%" style="stop-color:#8B5CF6;stop-opacity:0.8" />
    </linearGradient>
  </defs>
</svg>